<?xml version="1.0" standalone="no"?>
<!DOCTYPE svg PUBLIC "-//W3C//DTD SVG 20010904//EN"
 "http://www.w3.org/TR/2001/REC-SVG-20010904/DTD/svg10.dtd">
<svg version="1.0" xmlns="http://www.w3.org/2000/svg"
 width="500.000000pt" height="500.000000pt" viewBox="0 0 500.000000 500.000000"
 preserveAspectRatio="xMidYMid meet">

<g transform="translate(0.000000,500.000000) scale(0.100000,-0.100000)"
fill="#000000" stroke="none">
<path d="M0 2500 l0 -2500 2500 0 2500 0 0 2500 0 2500 -2500 0 -2500 0 0
-2500z m2458 1433 l3 -113 109 0 110 0 0 -35 0 -35 -175 0 -175 0 0 150 0 151
63 -3 62 -3 3 -112z m-194 -53 c14 -73 23 -137 18 -141 -9 -9 -105 -29 -111
-24 -7 8 -59 280 -54 285 8 9 108 27 114 21 3 -3 18 -67 33 -141z m-200 -23
c31 -68 56 -129 56 -136 0 -11 -79 -51 -101 -51 -4 0 -18 23 -30 51 -12 27
-27 48 -33 46 -6 -3 -39 -17 -73 -32 l-61 -27 24 -55 c14 -31 24 -56 22 -57
-27 -15 -109 -48 -112 -45 -13 14 -116 255 -112 264 2 6 26 21 54 32 l49 21
26 -54 26 -53 68 30 c37 17 69 32 71 34 2 2 -6 21 -17 44 -12 22 -21 47 -21
55 0 14 69 53 96 55 6 1 37 -54 68 -122z m1144 29 l48 -24 18 -161 c11 -89 23
-164 28 -167 5 -3 52 37 106 90 l97 96 52 -53 52 -52 -11 -117 c-7 -65 -8
-121 -5 -125 4 -4 37 22 72 57 l65 65 42 -43 43 -42 -108 -108 -108 -107 -51
54 -50 55 6 65 c4 37 9 95 12 131 l6 65 -71 -70 -71 -69 -47 46 c-27 25 -72
58 -100 72 -43 21 -53 31 -53 51 0 21 -12 31 -81 65 -73 37 -83 40 -112 30
-27 -10 -40 -9 -79 9 -27 11 -48 24 -48 28 0 10 270 181 288 182 7 1 34 -10
60 -23z m-1647 -216 l-45 -39 50 -57 c27 -31 60 -70 73 -86 l23 -29 -43 -37
c-24 -20 -46 -37 -49 -37 -3 0 -37 35 -74 78 -37 42 -71 77 -75 77 -4 0 -26
-16 -48 -35 l-40 -34 -22 23 c-11 12 -21 25 -21 28 0 4 59 59 131 123 l132
117 26 -27 26 -26 -44 -39z m1109 -115 c444 -67 803 -388 926 -825 32 -116 44
-353 24 -478 -77 -484 -462 -863 -950 -937 -237 -36 -450 -2 -675 110 -131 65
-216 127 -314 230 -162 171 -268 390 -302 624 -16 115 -7 324 20 424 30 113
83 237 143 335 64 104 221 266 326 335 241 160 524 225 802 182z m-1341 -169
c156 -95 146 -81 106 -146 -19 -30 -36 -58 -37 -62 -2 -4 -58 -14 -126 -24
-67 -9 -121 -21 -120 -26 2 -4 35 -27 73 -52 39 -24 70 -50 69 -58 -1 -7 -13
-33 -27 -56 l-27 -41 -122 75 c-68 41 -123 81 -122 88 1 7 17 37 36 67 l35 55
94 13 c129 18 149 22 144 31 -3 4 -36 27 -75 50 -38 23 -70 47 -70 52 0 12 50
98 57 98 3 0 53 -29 112 -64z m2614 -208 c94 -205 95 -265 9 -315 -112 -66
-173 -27 -271 174 -34 68 -61 127 -61 132 0 7 243 128 261 130 4 1 31 -54 62
-121z m-2932 -234 c4 -2 -5 -49 -18 -105 -13 -56 -22 -103 -21 -104 2 -2 12
-5 22 -7 17 -3 23 9 41 82 20 78 23 85 45 82 13 -1 25 -4 27 -6 3 -2 -5 -41
-16 -87 -21 -89 -20 -99 8 -99 14 0 22 21 43 108 l25 107 32 -2 c18 0 34 -3
37 -6 4 -4 -73 -337 -80 -344 -3 -3 -277 58 -285 63 -3 3 68 314 76 327 4 6
47 0 64 -9z m2955 -218 l154 -75 2 -40 c1 -23 2 -49 2 -60 1 -12 -43 -54 -131
-125 -73 -58 -134 -106 -137 -106 -2 0 -7 25 -11 56 -6 49 -4 59 15 79 20 21
21 29 14 110 -6 79 -9 88 -33 103 -14 9 -27 16 -28 16 -5 2 -14 116 -8 116 3
0 76 -33 161 -74z m-2853 -214 c31 -28 47 -69 54 -135 7 -81 -9 -139 -48 -171
-17 -14 -35 -26 -40 -26 -13 0 -11 127 2 149 15 23 4 71 -16 71 -12 0 -15 -15
-16 -67 0 -84 -16 -133 -49 -152 -39 -21 -93 7 -120 63 -24 51 -28 169 -6 220
12 30 49 66 67 66 11 0 18 -124 8 -137 -13 -15 -8 -75 7 -80 7 -2 13 23 17 70
7 84 20 126 45 145 21 16 68 8 95 -16z m3023 -254 c-3 -13 -9 -40 -12 -60 -7
-42 -3 -40 -156 -73 -43 -9 -78 -18 -78 -20 0 -1 41 -33 91 -71 72 -55 89 -73
85 -89 -2 -11 -8 -37 -11 -57 -4 -21 -10 -38 -14 -38 -11 0 -246 212 -248 224
-2 6 3 33 10 61 l13 49 155 47 c84 26 158 48 163 48 4 1 6 -9 2 -21z m-2879
-343 l21 -55 -26 -14 c-66 -32 -243 -98 -250 -92 -14 15 -41 101 -34 108 9 9
242 106 257 107 6 1 20 -24 32 -54z m2593 -144 l75 -152 -27 -47 c-32 -57 -46
-60 -245 -61 -73 -1 -133 -3 -133 -6 0 -3 38 -50 85 -106 47 -55 85 -104 85
-109 0 -15 -201 -179 -248 -201 -34 -17 -50 -19 -74 -13 -42 12 -72 54 -70 99
1 31 -2 35 -23 35 -13 0 -36 10 -51 23 l-27 23 46 38 c44 36 47 37 69 22 12
-9 33 -16 46 -16 24 0 102 54 102 70 0 5 -11 22 -25 38 l-25 29 56 44 c30 24
68 65 84 92 25 39 35 47 59 47 26 0 34 9 76 79 41 71 45 82 33 100 -11 19 -9
28 16 76 16 29 32 52 35 50 3 -2 40 -71 81 -154z m-2541 11 l31 -49 -22 -40
-22 -40 33 -52 33 -51 34 21 c39 24 50 19 85 -38 18 -29 20 -37 8 -48 -23 -22
-218 -155 -226 -155 -9 1 -143 199 -167 247 -42 84 -4 158 80 158 31 0 44 4
44 14 0 13 46 81 54 81 2 0 18 -22 35 -48z m278 -357 c48 -20 120 -80 144
-119 19 -31 26 -101 11 -110 -12 -7 -90 57 -115 96 -20 29 -67 52 -67 32 0 -4
29 -38 65 -75 73 -75 83 -111 43 -149 -27 -25 -95 -27 -140 -4 -41 21 -116 92
-134 125 -16 32 -19 85 -4 94 14 8 100 -63 111 -92 9 -24 54 -51 66 -40 3 4
-21 35 -54 70 -33 34 -63 73 -67 85 -13 38 2 72 37 87 42 18 60 18 104 0z
m823 -420 c0 -9 -9 -15 -25 -15 -22 0 -25 -4 -25 -40 0 -33 -3 -40 -20 -40
-17 0 -20 7 -20 40 0 33 -3 40 -19 40 -21 0 -34 13 -24 24 3 3 35 6 70 6 49 0
63 -3 63 -15z m140 0 c0 -11 -11 -15 -41 -15 -24 0 -38 -4 -34 -10 3 -5 19
-10 36 -10 16 0 29 -4 29 -10 0 -5 -16 -10 -36 -10 -21 0 -33 -4 -29 -10 3 -5
24 -10 46 -10 21 0 39 -5 39 -10 0 -7 -25 -10 -67 -8 l-68 3 -1 45 c0 25 2 48
4 53 2 4 30 7 63 7 46 0 59 -3 59 -15z m82 -2 c17 -15 19 -15 36 0 10 10 27
17 38 17 16 0 15 -3 -9 -27 l-27 -27 27 -28 27 -28 -26 0 c-14 0 -31 7 -38 15
-12 14 -15 14 -30 0 -9 -8 -25 -15 -35 -15 -17 0 -16 3 5 25 l24 25 -29 30
-29 30 24 0 c13 0 32 -7 42 -17z"/>
<path d="M3118 3780 l-36 -27 44 -21 44 -22 0 45 c0 24 -3 46 -7 48 -5 2 -25
-8 -45 -23z"/>
<path d="M2355 3540 c-63 -9 -183 -45 -199 -61 -6 -5 1 -9 20 -9 16 0 54 -6
85 -14 56 -13 57 -12 90 16 19 16 51 38 72 49 59 31 50 34 -68 19z"/>
<path d="M2456 3515 c-54 -22 -106 -59 -106 -75 0 -9 72 -36 126 -48 31 -7 48
-6 70 6 16 9 71 30 123 48 l94 32 -57 21 c-126 47 -169 50 -250 16z"/>
<path d="M2743 3504 c33 -14 66 -24 75 -22 10 2 -12 14 -47 26 -86 29 -100 27
-28 -4z"/>
<path d="M2856 3451 c47 -42 128 -92 147 -89 18 3 9 12 -48 51 -38 26 -79 47
-89 47 -12 0 -16 -3 -10 -9z"/>
<path d="M2047 3419 c-26 -18 -46 -34 -43 -36 2 -2 41 3 86 11 45 9 111 16
146 16 34 0 65 4 68 9 9 13 -75 31 -146 31 -54 0 -70 -5 -111 -31z"/>
<path d="M2690 3436 c-25 -7 -67 -23 -95 -35 l-50 -23 101 -33 c56 -18 121
-43 144 -55 l42 -22 32 30 c17 16 44 36 59 44 l29 14 -34 25 c-95 72 -134 81
-228 55z"/>
<path d="M2966 3432 c80 -67 164 -115 164 -93 0 11 -83 69 -124 86 -39 17 -55
19 -40 7z"/>
<path d="M1964 3409 c-23 -11 -59 -36 -80 -55 l-39 -34 46 17 c44 17 145 92
124 93 -5 0 -29 -9 -51 -21z"/>
<path d="M2328 3413 c7 -3 16 -2 19 1 4 3 -2 6 -13 5 -11 0 -14 -3 -6 -6z"/>
<path d="M2101 3379 c-123 -21 -157 -37 -209 -97 -49 -58 -122 -161 -122 -174
0 -3 26 -10 58 -13 31 -4 97 -20 146 -36 54 -18 100 -28 115 -24 14 3 47 30
73 59 39 45 48 63 58 117 6 35 22 88 36 118 13 29 24 55 24 57 0 7 -124 2
-179 -7z"/>
<path d="M2282 3354 c-23 -45 -52 -139 -52 -167 0 -15 11 -9 53 28 28 26 83
69 120 96 65 46 67 48 46 60 -12 6 -51 14 -85 17 l-62 5 -20 -39z"/>
<path d="M2534 3347 c41 -26 193 -146 215 -171 14 -14 27 -26 31 -26 3 0 11
19 18 43 7 23 15 47 18 54 6 14 -55 42 -177 84 -93 31 -141 38 -105 16z"/>
<path d="M2413 3298 c-34 -24 -91 -69 -127 -101 -60 -53 -66 -62 -66 -98 l0
-39 73 7 c80 9 341 11 427 3 l55 -4 3 30 c3 27 -5 38 -61 87 -81 71 -205 157
-227 157 -9 0 -44 -19 -77 -42z"/>
<path d="M2931 3329 c-32 -13 -81 -49 -81 -59 0 -5 19 -19 43 -31 23 -12 74
-44 114 -70 79 -54 81 -54 117 -38 l25 12 -22 31 c-35 49 -148 166 -161 165
-6 0 -22 -5 -35 -10z"/>
<path d="M3010 3333 c1 -5 21 -28 46 -53 25 -25 60 -64 77 -88 27 -37 35 -42
57 -37 14 4 27 8 29 11 5 5 -83 100 -133 142 -35 29 -76 43 -76 25z"/>
<path d="M3160 3266 c30 -31 56 -56 58 -56 2 0 -7 19 -21 42 -16 27 -37 48
-59 56 -32 13 -31 11 22 -42z"/>
<path d="M1839 3290 c-27 -14 -42 -33 -62 -77 -14 -32 -29 -71 -32 -88 -6 -26
-4 -25 19 14 15 24 49 73 76 108 28 34 47 63 43 63 -5 -1 -24 -9 -44 -20z"/>
<path d="M3220 3255 c0 -3 9 -23 20 -44 16 -32 23 -38 44 -34 14 3 24 9 21 13
-8 13 -85 72 -85 65z"/>
<path d="M1705 3198 c-49 -44 -124 -133 -150 -177 -9 -15 0 -12 45 19 14 10
45 24 69 33 42 14 46 18 66 78 13 35 26 72 30 82 11 27 1 21 -60 -35z"/>
<path d="M2816 3210 c-23 -59 -20 -80 20 -123 51 -55 84 -58 163 -14 l63 35
-43 32 c-44 32 -173 110 -182 110 -3 0 -12 -18 -21 -40z"/>
<path d="M3267 3147 c54 -85 87 -126 94 -115 35 66 5 128 -62 128 -30 0 -38
-3 -32 -13z"/>
<path d="M3191 3141 c-12 -8 -12 -12 -2 -25 8 -9 31 -49 53 -89 l39 -72 -5 57
c-12 114 -41 158 -85 129z"/>
<path d="M3122 3117 c-22 -13 -22 -13 20 -53 24 -21 58 -53 77 -69 l33 -30
-22 45 c-32 63 -69 120 -78 120 -4 -1 -17 -6 -30 -13z"/>
<path d="M2170 3083 c-19 -25 -20 -28 -5 -31 28 -6 45 6 45 33 0 32 -13 32
-40 -2z"/>
<path d="M2790 3080 c0 -13 7 -20 20 -20 23 0 26 10 8 28 -18 18 -28 15 -28
-8z"/>
<path d="M3007 3064 c-27 -14 -47 -27 -45 -29 2 -2 48 -18 103 -35 55 -18 117
-41 138 -51 20 -11 37 -15 37 -10 0 16 -151 151 -169 151 -9 -1 -38 -12 -64
-26z"/>
<path d="M1738 3047 c-9 -19 -19 -60 -23 -92 -6 -48 -5 -57 6 -52 8 3 50 21
94 40 44 19 112 44 150 57 l70 23 -33 14 c-60 24 -145 43 -197 43 -48 0 -52
-2 -67 -33z"/>
<path d="M3286 3053 c3 -16 9 -50 13 -78 l7 -50 19 37 18 37 -27 41 c-31 47
-37 50 -30 13z"/>
<path d="M3381 3040 c-11 -37 -10 -45 11 -82 19 -35 30 -44 62 -50 22 -5 43
-7 48 -6 9 3 -91 178 -102 178 -4 0 -12 -18 -19 -40z"/>
<path d="M1650 3049 c-55 -24 -126 -92 -145 -137 -16 -37 -45 -169 -45 -204 0
-20 5 -17 43 24 23 26 65 63 92 84 46 33 53 44 82 128 32 92 39 126 26 126 -5
0 -28 -10 -53 -21z"/>
<path d="M2345 3059 c-55 -5 -106 -11 -114 -14 -10 -4 -12 -19 -8 -64 l5 -58
108 -106 c59 -58 113 -103 118 -99 6 3 52 36 101 72 50 37 122 88 160 113 l70
47 -3 49 c-4 48 -5 49 -40 54 -76 12 -301 15 -397 6z"/>
<path d="M2790 3019 c0 -55 8 -61 51 -36 21 12 39 25 39 28 0 13 -26 27 -57
31 -30 4 -33 2 -33 -23z"/>
<path d="M2145 3031 c-45 -9 -40 -32 15 -68 l50 -31 0 54 c0 59 -1 59 -65 45z"/>
<path d="M2916 3012 c-4 -7 75 -126 102 -154 7 -7 227 33 237 44 12 12 -277
118 -322 118 -6 0 -14 -4 -17 -8z"/>
<path d="M1935 2972 c-60 -21 -135 -51 -165 -68 l-55 -29 3 -60 c4 -81 30
-233 45 -264 23 -48 45 -33 85 59 46 102 106 208 178 311 72 105 70 106 -91
51z"/>
<path d="M2855 2978 c-16 -10 -36 -22 -42 -26 -10 -6 -9 -23 6 -75 10 -37 21
-70 24 -73 5 -6 145 31 154 40 6 6 -78 126 -99 143 -9 7 -21 5 -43 -9z"/>
<path d="M2020 2883 c-70 -105 -143 -239 -179 -331 l-19 -48 43 -27 c24 -15
48 -34 54 -41 10 -12 42 0 185 70 96 46 179 84 185 84 15 0 14 9 -5 61 -9 24
-28 93 -43 154 l-28 109 -54 38 c-30 21 -57 38 -61 38 -4 0 -39 -48 -78 -107z"/>
<path d="M3333 2945 c-13 -19 -23 -37 -23 -39 0 -5 72 4 78 9 3 3 -26 65 -31
65 -1 0 -12 -16 -24 -35z"/>
<path d="M1681 2906 c-13 -33 -9 -43 8 -22 7 8 11 23 8 33 -3 14 -6 12 -16
-11z"/>
<path d="M2699 2879 c-41 -28 -114 -80 -162 -117 -75 -55 -86 -67 -75 -79 12
-11 37 -5 166 42 83 30 157 55 164 55 37 1 40 15 18 83 -12 37 -25 67 -29 67
-4 0 -41 -23 -82 -51z"/>
<path d="M3355 2891 l-30 -7 25 -13 c14 -8 42 -27 63 -43 43 -34 46 -29 14 26
-25 44 -29 46 -72 37z"/>
<path d="M2246 2828 c17 -75 52 -189 64 -207 6 -10 21 -2 61 29 30 23 55 46
57 50 3 9 -176 190 -188 190 -4 0 -2 -28 6 -62z"/>
<path d="M3152 2865 c-63 -13 -115 -25 -117 -27 -2 -2 15 -36 38 -77 l42 -73
53 58 c57 65 107 132 101 138 -2 2 -55 -7 -117 -19z"/>
<path d="M3460 2829 c15 -33 31 -63 34 -66 10 -10 44 59 39 78 -7 27 -42 49
-75 49 l-27 0 29 -61z"/>
<path d="M1671 2846 c-14 -17 -38 -128 -47 -218 l-6 -67 33 -4 34 -4 -32 -1
-33 -2 0 -87 c0 -83 14 -200 24 -211 3 -2 26 11 53 30 40 29 50 42 64 92 16
52 16 63 3 107 -12 41 -20 50 -47 59 -30 9 -30 10 -3 6 27 -3 28 -2 22 28 -21
101 -36 204 -36 242 0 45 -9 54 -29 30z"/>
<path d="M3270 2853 c0 -5 -34 -48 -75 -96 l-74 -88 32 -67 c17 -37 32 -68 33
-70 1 -1 13 3 28 9 29 14 39 40 55 159 17 126 19 160 10 160 -5 0 -9 -3 -9 -7z"/>
<path d="M3387 2778 c26 -40 49 -75 50 -77 2 -3 13 5 25 17 21 21 22 22 3 42
-22 24 -109 90 -119 90 -3 0 15 -33 41 -72z"/>
<path d="M2923 2809 c-47 -15 -63 -24 -63 -38 0 -18 90 -175 115 -201 13 -12
22 -8 70 40 30 30 55 59 55 64 0 24 -85 156 -99 155 -9 0 -44 -10 -78 -20z"/>
<path d="M3292 2738 c-7 -51 -16 -108 -19 -127 l-6 -34 32 19 c62 36 63 41 40
129 -11 44 -24 85 -28 92 -4 7 -13 -28 -19 -79z"/>
<path d="M3333 2820 c2 -8 13 -48 23 -87 18 -73 31 -86 54 -58 10 12 5 25 -24
72 -19 32 -41 65 -47 73 -10 13 -10 13 -6 0z"/>
<path d="M1539 2741 c-77 -78 -79 -81 -79 -128 0 -26 3 -65 6 -85 l6 -37 33
24 c17 14 46 30 63 36 28 10 31 15 37 67 7 59 23 154 31 185 10 34 -19 16 -97
-62z"/>
<path d="M3527 2772 c-23 -25 -21 -31 14 -72 l31 -35 -7 50 c-10 69 -17 80
-38 57z"/>
<path d="M2685 2731 c-186 -65 -353 -130 -360 -141 -13 -21 188 -370 213 -370
17 0 142 54 142 62 0 18 -95 197 -147 277 -30 46 -52 85 -50 87 7 8 100 -140
155 -246 30 -58 56 -107 58 -109 8 -8 274 236 274 251 0 4 -21 40 -47 80 -27
40 -57 92 -67 116 -10 23 -22 42 -25 42 -3 0 -69 -22 -146 -49z"/>
<path d="M1433 2690 c0 -25 2 -35 4 -22 2 12 2 32 0 45 -2 12 -4 2 -4 -23z"/>
<path d="M3467 2702 c-18 -20 -18 -23 17 -110 20 -49 39 -104 42 -121 8 -36
21 -40 29 -8 6 21 -30 159 -58 228 -12 31 -12 31 -30 11z"/>
<path d="M3520 2688 c1 -2 11 -38 24 -82 15 -52 25 -73 29 -61 12 31 7 58 -18
102 -21 35 -37 54 -35 41z"/>
<path d="M2395 2655 c-35 -29 -30 -31 25 -9 22 9 37 20 34 25 -9 15 -27 10
-59 -16z"/>
<path d="M3400 2652 c-21 -17 -22 -21 -11 -89 6 -40 11 -108 11 -152 0 -92 9
-100 70 -58 53 35 57 48 37 121 -16 61 -72 196 -80 196 -3 0 -15 -8 -27 -18z"/>
<path d="M3050 2595 l-54 -55 39 -40 38 -39 49 27 c26 15 48 31 48 36 0 14
-52 126 -59 126 -4 0 -31 -25 -61 -55z"/>
<path d="M3308 2589 c-40 -26 -49 -38 -62 -84 -19 -63 -19 -76 -5 -125 10 -33
17 -40 54 -50 23 -6 53 -10 66 -8 23 3 24 6 23 73 -1 94 -14 225 -22 224 -4 0
-28 -14 -54 -30z"/>
<path d="M1426 2591 c-8 -13 4 -140 14 -146 15 -10 19 25 9 87 -11 68 -14 75
-23 59z"/>
<path d="M2290 2565 c-7 -9 -21 -13 -31 -10 -19 6 -309 -127 -309 -142 0 -5
16 -24 35 -43 l34 -33 78 74 c136 128 153 143 158 138 3 -3 -46 -52 -108 -108
-61 -57 -113 -107 -115 -110 -1 -4 17 -37 40 -72 24 -36 54 -89 67 -118 22
-47 28 -52 50 -46 37 8 315 106 323 114 3 3 -16 40 -44 81 -27 41 -74 123
-104 183 -30 59 -56 107 -58 107 -2 0 -9 -7 -16 -15z"/>
<path d="M3586 2512 c-7 -49 4 -163 15 -156 5 3 9 42 9 87 0 93 -13 132 -24
69z"/>
<path d="M1543 2524 c-58 -29 -68 -47 -55 -105 14 -57 68 -199 83 -214 6 -6
17 -2 30 11 19 20 20 26 10 117 -6 53 -11 121 -11 152 0 61 -5 64 -57 39z"/>
<path d="M3212 2527 c-8 -10 -11 -25 -7 -38 7 -20 8 -20 17 -5 5 9 8 26 6 38
-3 19 -4 20 -16 5z"/>
<path d="M2868 2422 c-65 -58 -116 -108 -113 -110 6 -6 295 136 295 145 0 5
-15 23 -32 40 l-33 31 -117 -106z"/>
<path d="M1397 2507 c-9 -25 -8 -147 2 -172 7 -16 10 -11 16 25 8 54 -7 175
-18 147z"/>
<path d="M1777 2489 c4 -13 9 -17 15 -11 11 11 3 32 -12 32 -4 0 -6 -9 -3 -21z"/>
<path d="M3128 2479 c-21 -11 -38 -23 -38 -28 0 -9 90 -75 95 -69 15 15 21 56
12 85 -12 38 -18 39 -69 12z"/>
<path d="M1805 2457 c-7 -34 8 -87 24 -87 5 0 28 11 51 24 l42 24 -48 36 c-26
20 -51 36 -55 36 -4 0 -11 -15 -14 -33z"/>
<path d="M3025 2423 c-16 -9 -95 -47 -175 -84 -80 -38 -145 -72 -145 -76 1 -4
13 -45 27 -90 15 -45 33 -112 40 -148 12 -66 12 -67 71 -107 70 -48 63 -52
152 82 53 79 167 299 179 345 4 16 -7 28 -49 58 -61 42 -60 42 -100 20z"/>
<path d="M1447 2410 c-7 -29 55 -260 71 -260 3 0 13 7 23 16 16 14 15 20 -16
92 -19 43 -40 99 -46 125 -14 51 -24 59 -32 27z"/>
<path d="M3556 2422 c-10 -17 4 -163 15 -156 11 6 11 72 1 129 -5 26 -10 36
-16 27z"/>
<path d="M1777 2379 c-12 -43 -9 -51 13 -37 24 15 24 18 7 43 -13 17 -14 17
-20 -6z"/>
<path d="M1873 2374 c-24 -14 -43 -27 -43 -29 0 -2 14 -34 30 -71 l31 -68 54
54 c30 30 55 59 55 65 0 13 -62 75 -75 75 -6 0 -29 -12 -52 -26z"/>
<path d="M3207 2386 c-3 -8 -2 -18 4 -22 16 -9 22 2 11 21 -8 15 -10 16 -15 1z"/>
<path d="M3506 2361 c-10 -11 -38 -28 -61 -37 l-43 -16 -6 -66 c-4 -37 -13
-95 -20 -129 -8 -41 -9 -63 -2 -63 5 0 45 35 88 78 l78 78 -1 70 c0 38 -4 77
-8 87 -6 17 -8 17 -25 -2z"/>
<path d="M3156 2265 c-50 -110 -125 -242 -187 -328 -40 -56 -46 -69 -33 -74
31 -12 328 104 348 135 8 13 -13 196 -30 272 -14 61 -25 79 -49 80 -6 0 -28
-38 -49 -85z"/>
<path d="M1430 2296 c0 -33 7 -60 22 -84 31 -50 32 -30 3 58 l-24 75 -1 -49z"/>
<path d="M1782 2322 c-28 -22 -48 -104 -57 -232 l-6 -85 23 30 c13 16 49 60
80 96 l58 66 -33 72 c-17 39 -34 71 -37 71 -3 0 -16 -9 -28 -18z"/>
<path d="M3260 2322 c0 -4 9 -50 20 -102 11 -52 20 -115 20 -140 1 -92 32 -86
54 10 9 36 19 100 22 143 l7 77 -29 0 c-16 0 -44 4 -62 9 -17 5 -32 7 -32 3z"/>
<path d="M1991 2292 c-8 -9 -32 -35 -53 -58 l-39 -41 42 -72 c23 -40 47 -75
54 -78 14 -5 155 34 155 43 0 12 -72 144 -99 182 -35 47 -40 49 -60 24z"/>
<path d="M1683 2260 l-41 -30 13 -57 c8 -32 20 -76 28 -98 l14 -40 8 60 c4 33
13 90 20 128 6 37 9 67 6 67 -3 -1 -25 -14 -48 -30z"/>
<path d="M2625 2214 l-57 -47 96 -95 c52 -53 97 -94 100 -91 10 10 -55 252
-74 272 -4 4 -33 -13 -65 -39z"/>
<path d="M2583 2224 c-18 -8 -33 -18 -33 -23 0 -21 17 -18 50 10 38 31 33 35
-17 13z"/>
<path d="M3568 2224 c-5 -4 -8 -30 -7 -58 l1 -51 9 45 c10 49 8 76 -3 64z"/>
<path d="M1597 2196 c-16 -13 -15 -17 19 -75 36 -61 64 -92 50 -56 -3 10 -14
47 -22 82 -9 34 -19 63 -23 63 -3 0 -14 -7 -24 -14z"/>
<path d="M1430 2190 c0 -25 23 -110 29 -110 4 0 13 11 21 24 11 22 9 28 -15
60 -29 38 -35 42 -35 26z"/>
<path d="M2370 2144 c-85 -30 -165 -59 -177 -64 l-22 -9 22 -65 c11 -37 25
-66 30 -66 12 0 241 159 325 225 5 4 -10 35 -17 34 -3 0 -76 -25 -161 -55z"/>
<path d="M1833 2123 c-56 -65 -103 -127 -103 -135 0 -3 24 -1 53 4 75 12 187
39 187 45 0 6 -81 143 -85 143 -2 0 -25 -26 -52 -57z"/>
<path d="M3494 2129 c-27 -28 -69 -66 -95 -84 -42 -32 -47 -41 -77 -136 -18
-56 -30 -104 -27 -107 2 -3 34 9 69 27 109 53 153 125 175 281 5 36 8 66 7 67
-1 2 -24 -20 -52 -48z"/>
<path d="M1545 2150 c-9 -10 -15 -26 -12 -34 6 -15 115 -101 121 -95 2 2 -18
37 -44 77 -46 71 -47 72 -65 52z"/>
<path d="M2513 2126 c-24 -18 -99 -73 -168 -121 l-125 -87 0 -44 c0 -39 3 -46
28 -55 34 -13 326 -17 446 -6 l88 9 -4 61 -4 62 -109 108 c-60 59 -109 107
-109 107 -1 0 -20 -15 -43 -34z"/>
<path d="M1486 2088 c-33 -47 -13 -94 47 -107 20 -5 37 -8 37 -6 0 7 -61 135
-65 135 -2 0 -11 -10 -19 -22z"/>
<path d="M1563 2041 c7 -15 19 -38 28 -51 14 -21 20 -23 48 -14 l33 9 -60 41
c-58 40 -60 41 -49 15z"/>
<path d="M2073 2048 c-82 -24 -82 -17 -8 -116 l46 -63 37 22 c20 12 41 26 46
30 9 8 -30 150 -42 148 -4 0 -39 -10 -79 -21z"/>
<path d="M1863 1996 c-56 -12 -105 -25 -109 -29 -13 -13 264 -117 313 -117 31
0 29 12 -12 65 -18 25 -42 59 -52 75 -9 17 -22 29 -28 29 -5 -1 -56 -12 -112
-23z"/>
<path d="M3317 1994 c-4 -4 -7 -17 -7 -28 1 -19 1 -20 11 -3 11 19 8 43 -4 31z"/>
<path d="M1500 1964 c0 -12 70 -137 88 -157 16 -18 17 -17 33 20 16 37 15 39
-10 85 -21 38 -31 48 -53 48 -14 0 -33 3 -42 6 -9 3 -16 3 -16 -2z"/>
<path d="M3220 1940 c-31 -15 -98 -43 -149 -61 -90 -31 -92 -33 -68 -46 42
-22 138 -43 194 -43 49 0 54 2 69 32 18 35 32 148 18 148 -5 -1 -34 -14 -64
-30z"/>
<path d="M1610 1953 c0 -5 9 -21 19 -36 14 -22 21 -26 27 -15 4 7 14 23 22 36
14 22 13 22 -27 22 -22 0 -41 -3 -41 -7z"/>
<path d="M1675 1906 l-19 -34 28 -42 c15 -23 29 -40 31 -38 4 4 -13 140 -19
145 -1 2 -11 -12 -21 -31z"/>
<path d="M2790 1908 c0 -18 3 -44 7 -56 5 -21 10 -23 42 -17 67 12 68 27 6 68
l-55 37 0 -32z"/>
<path d="M1839 1850 l84 -79 59 30 c33 17 58 32 55 35 -2 2 -36 13 -75 24 -39
11 -96 31 -128 45 -31 14 -62 25 -68 25 -6 -1 27 -36 73 -80z"/>
<path d="M1726 1858 c16 -119 40 -157 83 -129 11 7 5 23 -28 79 -22 39 -41 75
-41 81 0 5 -5 13 -10 16 -8 5 -9 -10 -4 -47z"/>
<path d="M1750 1905 c0 -6 20 -45 46 -88 39 -68 48 -77 67 -71 23 7 44 22 36
26 -2 2 -37 34 -77 73 -39 38 -72 65 -72 60z"/>
<path d="M2156 1883 c-32 -21 -36 -27 -25 -38 8 -7 29 -15 47 -18 32 -6 32 -6
32 33 0 21 -3 41 -7 43 -5 3 -25 -6 -47 -20z"/>
<path d="M3410 1830 c-14 -11 -47 -27 -73 -36 -27 -9 -51 -23 -53 -33 -3 -9
-16 -44 -29 -78 -26 -71 -23 -71 57 -2 51 44 148 169 131 169 -4 0 -19 -9 -33
-20z"/>
<path d="M1636 1824 c-11 -28 -6 -69 10 -92 11 -16 25 -22 55 -22 47 0 47 -3
-6 72 -43 62 -50 66 -59 42z"/>
<path d="M2853 1787 c-50 -48 -56 -59 -69 -121 -8 -38 -25 -96 -39 -129 l-24
-60 97 6 c53 4 129 15 167 26 63 17 75 25 125 80 30 33 72 87 92 119 l37 60
-62 6 c-34 4 -102 20 -150 37 -49 16 -95 29 -103 29 -9 0 -40 -24 -71 -53z"/>
<path d="M2001 1797 l-64 -34 64 -45 c91 -64 157 -101 168 -93 6 3 17 29 26
58 l15 51 -42 43 c-58 58 -87 61 -167 20z"/>
<path d="M2812 1811 c-8 -4 -12 -18 -10 -30 3 -22 4 -22 32 8 26 27 27 31 10
31 -10 0 -25 -4 -32 -9z"/>
<path d="M2170 1802 c0 -5 9 -17 20 -27 20 -18 20 -17 20 8 0 20 -5 27 -20 27
-11 0 -20 -4 -20 -8z"/>
<path d="M2695 1798 c-38 -5 -159 -8 -268 -6 l-198 4 -6 -25 c-5 -21 3 -33 58
-83 35 -32 101 -84 145 -114 74 -51 84 -55 105 -44 33 17 155 110 207 158 36
34 42 44 42 80 0 23 -3 41 -7 41 -5 -1 -39 -6 -78 -11z"/>
<path d="M3212 1693 c-29 -43 -64 -93 -79 -112 l-28 -34 42 22 c24 12 50 33
59 46 16 25 67 155 60 155 -1 0 -26 -35 -54 -77z"/>
<path d="M1883 1740 c-13 -5 -23 -12 -23 -16 0 -12 77 -107 123 -153 44 -42
46 -43 80 -32 38 13 87 47 87 61 0 4 -28 24 -62 43 -35 20 -85 52 -113 71 -53
38 -58 40 -92 26z"/>
<path d="M1796 1709 c-16 -10 -10 -19 65 -95 66 -67 90 -84 112 -84 29 0 28 1
-36 70 -37 38 -74 81 -83 95 -18 27 -29 30 -58 14z"/>
<path d="M2214 1703 c-3 -10 -12 -33 -20 -51 -8 -18 -14 -35 -14 -37 0 -14
254 -105 293 -105 14 0 -4 17 -56 53 -43 29 -104 77 -137 106 -51 44 -61 50
-66 34z"/>
<path d="M1729 1649 c24 -21 46 -38 48 -35 2 2 -4 20 -13 40 -15 30 -23 36
-48 36 l-31 -1 44 -40z"/>
<path d="M2705 1638 c-33 -28 -84 -67 -112 -86 -29 -19 -53 -38 -53 -43 0 -12
69 -29 116 -29 49 0 62 15 94 110 34 100 26 109 -45 48z"/>
<path d="M1795 1630 c19 -37 50 -66 78 -74 14 -3 3 12 -33 50 -30 29 -56 54
-57 54 -2 0 3 -13 12 -30z"/>
<path d="M2145 1570 c-11 -11 -37 -28 -58 -38 l-39 -19 39 -30 c78 -60 109
-75 150 -68 75 13 213 61 213 74 0 4 -24 13 -52 21 -29 7 -90 28 -136 47 -46
18 -86 33 -90 33 -4 0 -16 -9 -27 -20z"/>
<path d="M3095 1524 c-57 -28 -127 -84 -105 -84 22 0 112 54 139 84 30 32 29
32 -34 0z"/>
<path d="M1895 1506 c32 -28 133 -81 140 -75 9 10 -108 90 -138 95 l-32 6 30
-26z"/>
<path d="M1980 1505 c0 -12 140 -96 154 -93 22 4 -107 98 -134 98 -11 0 -20
-2 -20 -5z"/>
<path d="M2910 1475 c-36 -7 -98 -13 -137 -14 -70 -1 -92 -11 -55 -26 9 -4 56
-9 103 -12 85 -6 88 -5 133 26 67 46 66 47 -44 26z"/>
<path d="M2425 1456 c-27 -13 -81 -32 -120 -42 l-70 -18 42 -18 c70 -30 163
-50 205 -44 47 8 112 38 153 71 l29 24 -49 21 c-76 32 -131 34 -190 6z"/>
<path d="M2663 1407 c-10 -11 -42 -33 -70 -49 -29 -17 -53 -32 -53 -35 0 -11
152 12 220 33 97 31 117 44 70 44 -19 0 -61 6 -92 14 -54 12 -58 12 -75 -7z"/>
<path d="M2206 1371 c22 -10 56 -22 75 -25 29 -6 26 -3 -19 18 -30 14 -64 26
-75 25 -16 0 -11 -5 19 -18z"/>
<path d="M3798 3123 c-32 -14 -58 -30 -58 -35 0 -16 40 -88 60 -108 11 -11 31
-20 44 -20 34 0 76 37 76 66 0 34 -40 124 -54 123 -6 0 -37 -12 -68 -26z"/>
<path d="M3946 2578 c4 -24 8 -44 9 -46 4 -5 75 42 75 49 0 6 -67 39 -80 39
-6 0 -8 -17 -4 -42z"/>
<path d="M3741 1650 l-22 -40 51 0 50 0 -20 40 c-11 22 -24 40 -28 40 -5 0
-18 -18 -31 -40z"/>
<path d="M3457 1265 c-52 -47 -60 -80 -19 -80 24 0 111 63 112 81 0 10 -31 44
-41 44 -2 0 -26 -20 -52 -45z"/>
<path d="M1183 1604 c-7 -18 15 -64 50 -107 22 -26 22 -27 46 -8 l24 18 -23
34 c-53 77 -84 97 -97 63z"/>
</g>
</svg>
